<!-- Generated by IcoMoon.io -->
<svg version="1.1" xmlns="http://www.w3.org/2000/svg" width="124" height="124" viewBox="0 0 124 124">
<title>public</title>
<path fill="#fff" d="M92.516 89.852c6.781-7.266 10.898-17.195 10.898-27.852 0-17.195-10.656-32.211-25.914-38.266v2.18c0 5.57-4.844 10.172-10.414 10.172h-10.172v10.414c0 2.906-2.422 5.086-5.328 5.086h-10.172v10.414h31c2.906 0 5.086 2.18 5.086 5.086v15.5h5.086c4.602 0 8.477 3.148 9.93 7.266zM56.914 102.93v-9.93c-5.57 0-10.414-4.844-10.414-10.414v-5.086l-24.703-24.703c-0.727 2.906-1.211 6.055-1.211 9.203 0 21.070 15.984 38.508 36.328 40.93zM62 10.414c28.578 0 51.586 23.008 51.586 51.586s-23.008 51.586-51.586 51.586-51.586-23.008-51.586-51.586 23.008-51.586 51.586-51.586z"></path>
</svg>
