<!-- Generated by IcoMoon.io -->
<svg version="1.1" xmlns="http://www.w3.org/2000/svg" width="124" height="124" viewBox="0 0 124 124">
<title>stats-dots</title>
<path fill="#fff" d="M15.5 108.5h108.5v15.5h-124v-124h15.5zM34.875 100.75c-6.42 0-11.625-5.205-11.625-11.625s5.205-11.625 11.625-11.625c0.342 0 0.681 0.018 1.016 0.047l12.496-20.826c-1.192-1.825-1.887-4.004-1.887-6.346 0-6.42 5.205-11.625 11.625-11.625s11.625 5.205 11.625 11.625c0 2.342-0.695 4.521-1.887 6.346l12.496 20.826c0.335-0.029 0.673-0.047 1.016-0.047 0.259 0 0.514 0.011 0.769 0.028l20.629-36.101c-1.276-1.866-2.023-4.122-2.023-6.552 0-6.42 5.205-11.625 11.625-11.625s11.625 5.205 11.625 11.625c0 6.42-5.205 11.625-11.625 11.625-0.259 0-0.514-0.011-0.769-0.028l-20.629 36.101c1.276 1.866 2.023 4.122 2.023 6.552 0 6.42-5.205 11.625-11.625 11.625s-11.625-5.205-11.625-11.625c0-2.342 0.695-4.521 1.886-6.346l-12.496-20.826c-0.335 0.029-0.673 0.047-1.016 0.047s-0.681-0.018-1.016-0.047l-12.496 20.826c1.192 1.825 1.887 4.003 1.887 6.345 0 6.42-5.205 11.625-11.625 11.625z"></path>
</svg>
