<!-- Generated by IcoMoon.io -->
<svg version="1.1" xmlns="http://www.w3.org/2000/svg" width="124" height="124" viewBox="0 0 124 124">
<title>visibility</title>
<path fill="#fff" d="M62 46.5c8.477 0 15.5 7.023 15.5 15.5s-7.023 15.5-15.5 15.5-15.5-7.023-15.5-15.5 7.023-15.5 15.5-15.5zM62 87.914c14.289 0 25.914-11.625 25.914-25.914s-11.625-25.914-25.914-25.914-25.914 11.625-25.914 25.914 11.625 25.914 25.914 25.914zM62 23.25c25.914 0 47.953 15.984 56.914 38.75-8.961 22.766-31 38.75-56.914 38.75s-47.953-15.984-56.914-38.75c8.961-22.766 31-38.75 56.914-38.75z"></path>
</svg>
