<!-- Generated by IcoMoon.io -->
<svg version="1.1" xmlns="http://www.w3.org/2000/svg" width="124" height="124" viewBox="0 0 124 124">
<title>eye</title>
<path fill="#3c4146" d="M62 23.25c-27.042 0-50.482 15.747-62 38.75 11.518 23.003 34.958 38.75 62 38.75s50.481-15.747 62-38.75c-11.518-23.003-34.958-38.75-62-38.75zM92.57 43.8c7.285 4.647 13.459 10.871 18.096 18.2-4.637 7.329-10.811 13.553-18.096 18.2-9.154 5.839-19.725 8.925-30.57 8.925s-21.416-3.086-30.57-8.925c-7.285-4.647-13.458-10.871-18.095-18.2 4.637-7.329 10.811-13.553 18.096-18.2 0.474-0.303 0.954-0.596 1.436-0.884-1.206 3.309-1.866 6.881-1.866 10.607 0 17.12 13.879 31 31 31s31-13.88 31-31c0-3.727-0.66-7.298-1.866-10.608 0.482 0.288 0.961 0.581 1.436 0.884v0zM62 50.375c0 6.42-5.205 11.625-11.625 11.625s-11.625-5.205-11.625-11.625 5.205-11.625 11.625-11.625 11.625 5.205 11.625 11.625z"></path>
</svg>
