<!-- Generated by IcoMoon.io -->
<svg version="1.1" xmlns="http://www.w3.org/2000/svg" width="124" height="124" viewBox="0 0 124 124">
<title>flag1</title>
<path fill="#000" d="M0 0h15.5v124h-15.5v-124z"></path>
<path fill="#000" d="M100.75 77.864c10.005 0 18.717-2.42 23.25-5.994v-62c-4.533 3.574-13.245 5.994-23.25 5.994s-18.717-2.42-23.25-5.994v62c4.533 3.574 13.245 5.994 23.25 5.994z"></path>
<path fill="#000" d="M73.625 3.939c-5.68-2.415-13.989-3.939-23.25-3.939-11.673 0-21.837 2.42-27.125 5.994v62c5.288-3.574 15.452-5.994 27.125-5.994 9.261 0 17.57 1.524 23.25 3.939v-62z"></path>
</svg>
